<svg width="366" height="366" viewBox="0 0 366 366" fill="none" xmlns="http://www.w3.org/2000/svg">
<g filter="url(#filter0_d_3_135)">
<rect x="55.5" y="28.5" width="255" height="255" rx="18.5" stroke="#E8E8E8" stroke-width="5"/>
<rect x="58" y="31" width="250" height="250" rx="13" fill="white"/>
<path d="M232.27 100.06L183.72 137.06L134.06 100.06V100.07L134.12 100.12V151.93L183.16 189.73L232.27 153.39V100.06Z" fill="#EA4335"/>
<path d="M245.02 91.0597L232.27 100.06V153.39L272.39 123.31V105.19C272.39 105.19 267.52 79.3097 245.02 91.0597Z" fill="#FBBC05"/>
<path d="M232.27 153.39V222.56H263.02C263.02 222.56 271.77 221.68 272.4 211.94V123.31L232.27 153.39Z" fill="#34A853"/>
<path d="M134.12 222.62V151.93L134.06 151.88L134.12 222.62Z" fill="#C5221F"/>
<path d="M134.06 100.07L121.38 91.1197C98.88 79.3697 94 105.24 94 105.24V123.36L134.06 151.88V100.07Z" fill="#C5221F"/>
<path d="M134.06 100.07V151.88L134.12 151.93V100.12L134.06 100.07Z" fill="#C5221F"/>
<path d="M94 123.37V212C94.62 221.75 103.38 222.62 103.38 222.62H134.13L134.06 151.88L94 123.37Z" fill="#4285F4"/>
</g>
<defs>
<filter id="filter0_d_3_135" x="0" y="0" width="366" height="366" filterUnits="userSpaceOnUse" color-interpolation-filters="sRGB">
<feFlood flood-opacity="0" result="BackgroundImageFix"/>
<feColorMatrix in="SourceAlpha" type="matrix" values="0 0 0 0 0 0 0 0 0 0 0 0 0 0 0 0 0 0 127 0" result="hardAlpha"/>
<feOffset dy="27"/>
<feGaussianBlur stdDeviation="26.5"/>
<feColorMatrix type="matrix" values="0 0 0 0 1 0 0 0 0 1 0 0 0 0 1 0 0 0 0.05 0"/>
<feBlend mode="normal" in2="BackgroundImageFix" result="effect1_dropShadow_3_135"/>
<feBlend mode="normal" in="SourceGraphic" in2="effect1_dropShadow_3_135" result="shape"/>
</filter>
</defs>
</svg>
